<svg width="40" height="38" viewBox="0 0 40 38" fill="none" xmlns="http://www.w3.org/2000/svg" xmlns:xlink="http://www.w3.org/1999/xlink"><path d="M0.00219435 27.6661C0.0631297 24.9331 2.00235 22.6809 2.96435 21.8965L14.8896 30.5509C24.207 29.0579 41.2011 27.4232 34.6384 32.8284C26.4351 39.585 11.0887 37.4244 6.45833 35.3337C1.82802 33.2429 -0.0739748 31.0823 0.00219435 27.6661Z" fill="url(#paint0_linear_1006_798)"></path><path d="M0.00219435 27.6661C0.0631297 24.9331 2.00235 22.6809 2.96435 21.8965L14.8896 30.5509C24.207 29.0579 41.2011 27.4232 34.6384 32.8284C26.4351 39.585 11.0887 37.4244 6.45833 35.3337C1.82802 33.2429 -0.0739748 31.0823 0.00219435 27.6661Z" fill="url(#paint1_linear_1006_798)" fill-opacity="0.64"></path><path d="M37.4306 16.7394C38.8497 19.8462 38.2866 23.1465 36.1731 24.1108C34.0595 25.0751 31.1958 23.3382 29.7768 20.2314C28.3578 17.1246 28.9208 13.8242 31.0344 12.8599C33.1479 11.8956 36.0116 13.6325 37.4306 16.7394Z" fill="url(#paint2_linear_1006_798)"></path><path d="M11.0541 10.8806C7.34064 11.0546 3.99484 14.7708 2.78613 16.6072L11.9971 15.0124L11.0541 10.8806Z" fill="#00327A"></path><path d="M35.789 32.0244C20.0617 42.2178 6.1974 29.4969 1.27398 20.8989C1.00827 20.4349 0.967986 19.8747 1.1728 19.3808C3.77537 13.1051 8.59776 13.1286 10.8296 13.9719L7.10789 2.8422C6.69969 1.62149 7.59628 0.354026 8.88318 0.401437C31.8126 1.24617 38.5086 20.3502 37.2195 29.8476C37.0972 30.7488 36.5525 31.5296 35.789 32.0244Z" fill="url(#paint3_linear_1006_798)"></path><g filter="url(#filter0_i_1006_798)"><path d="M28.0443 20.2621C28.0443 24.4835 24.6203 27.9056 20.3966 27.9056C16.173 27.9056 12.749 24.4835 12.749 20.2621C12.749 16.0407 16.173 12.6185 20.3966 12.6185C24.6203 12.6185 28.0443 16.0407 28.0443 20.2621Z" fill="white"></path></g><path opacity="0.12" d="M30.353 20.262C30.353 25.7578 25.8954 30.213 20.3967 30.213C14.898 30.213 10.4404 25.7578 10.4404 20.262C10.4404 14.7662 14.898 10.311 20.3967 10.311C25.8954 10.311 30.353 14.7662 30.353 20.262Z" fill="url(#paint4_linear_1006_798)"></path><path d="M20.1108 21.4762C20.1108 22.7954 19.0408 23.8649 17.7209 23.8649C16.401 23.8649 15.331 22.7954 15.331 21.4762C15.331 20.1571 16.401 19.0876 17.7209 19.0876C19.0408 19.0876 20.1108 20.1571 20.1108 21.4762Z" fill="url(#paint5_linear_1006_798)"></path><path opacity="0.32" d="M20.8315 19.0877C20.8315 20.4069 19.7615 21.4763 18.4416 21.4763C17.1217 21.4763 16.0517 20.4069 16.0517 19.0877C16.0517 17.7685 17.1217 16.6991 18.4416 16.6991C19.7615 16.6991 20.8315 17.7685 20.8315 19.0877Z" fill="white"></path><path d="M36.53 29.9367C34.0724 10.6073 20.5066 5.78407 12.7441 5.02484L14.4415 0.835327C34.0106 5.02486 38.2517 19.7252 37.4686 29.9367H36.53Z" fill="url(#paint6_radial_1006_798)"></path><defs><filter id="filter0_i_1006_798" x="12.749" y="12.6185" width="15.2953" height="17.2871" filterUnits="userSpaceOnUse" color-interpolation-filters="sRGB"><feFlood flood-opacity="0" result="BackgroundImageFix"></feFlood><feBlend mode="normal" in="SourceGraphic" in2="BackgroundImageFix" result="shape"></feBlend><feColorMatrix in="SourceAlpha" type="matrix" values="0 0 0 0 0 0 0 0 0 0 0 0 0 0 0 0 0 0 127 0" result="hardAlpha"></feColorMatrix><feOffset dy="2"></feOffset><feGaussianBlur stdDeviation="3"></feGaussianBlur><feComposite in2="hardAlpha" operator="arithmetic" k2="-1" k3="1"></feComposite><feColorMatrix type="matrix" values="0 0 0 0 0 0 0 0 0 0 0 0 0 0 0 0 0 0 0.25 0"></feColorMatrix><feBlend mode="normal" in2="shape" result="effect1_innerShadow_1006_798"></feBlend></filter><linearGradient id="paint0_linear_1006_798" x1="16.5337" y1="36.4834" x2="1.60912" y2="30.2237" gradientUnits="userSpaceOnUse"><stop stop-color="#9847F5"></stop><stop offset="1" stop-color="#F673AD"></stop></linearGradient><linearGradient id="paint1_linear_1006_798" x1="11.4827" y1="31.6611" x2="5.98403" y2="42.7397" gradientUnits="userSpaceOnUse"><stop stop-color="#001A3F"></stop><stop offset="1" stop-opacity="0"></stop></linearGradient><linearGradient id="paint2_linear_1006_798" x1="39.026" y1="9.3123" x2="33.2802" y2="22.1737" gradientUnits="userSpaceOnUse"><stop stop-color="#1474FF"></stop><stop offset="0.796875" stop-color="#001739"></stop></linearGradient><linearGradient id="paint3_linear_1006_798" x1="27.0655" y1="-4.02469" x2="14.9026" y2="34.6962" gradientUnits="userSpaceOnUse"><stop stop-color="#16F2DC"></stop><stop offset="0.71875" stop-color="#1474FF"></stop><stop offset="1" stop-color="#00347E"></stop></linearGradient><linearGradient id="paint4_linear_1006_798" x1="20.3967" y1="10.311" x2="20.3967" y2="30.213" gradientUnits="userSpaceOnUse"><stop offset="0.40625" stop-color="white"></stop><stop offset="1" stop-opacity="0.4"></stop></linearGradient><linearGradient id="paint5_linear_1006_798" x1="17.7209" y1="19.0876" x2="17.7209" y2="23.8649" gradientUnits="userSpaceOnUse"><stop offset="0.333333" stop-color="#F673AD"></stop><stop offset="1" stop-color="#9847F5"></stop></linearGradient><radialGradient id="paint6_radial_1006_798" cx="0" cy="0" r="1" gradientUnits="userSpaceOnUse" gradientTransform="translate(39.8333 8.78862) rotate(-146.979) scale(24.1663 19.6814)"><stop stop-color="white" stop-opacity="0.4"></stop><stop offset="1" stop-color="white" stop-opacity="0"></stop></radialGradient></defs></svg>