<?xml version="1.0" encoding="UTF-8" standalone="no"?>
<!DOCTYPE svg PUBLIC "-//W3C//DTD SVG 1.1//EN" "http://www.w3.org/Graphics/SVG/1.1/DTD/svg11.dtd">
<svg width="100%" height="100%" viewBox="0 0 40 40" version="1.1" xmlns="http://www.w3.org/2000/svg" xmlns:xlink="http://www.w3.org/1999/xlink" xml:space="preserve" xmlns:serif="http://www.serif.com/" style="fill-rule:evenodd;clip-rule:evenodd;stroke-linejoin:round;stroke-miterlimit:2;">
    <g transform="matrix(0.999081,0,0,1,-3.01845e-07,0)">
        <path d="M6.485,17.748C6.281,18.267 6.104,18.798 5.957,19.337C5.305,21.713 5.195,24.204 5.634,26.628C5.654,26.749 5.678,26.869 5.704,26.989C5.796,27.447 5.911,27.906 6.044,28.355C6.191,28.854 6.367,29.357 6.568,29.847C7.917,33.159 10.316,35.936 13.398,37.751C14.119,38.177 14.872,38.545 15.65,38.853C18.586,40.014 21.794,40.301 24.889,39.68C27.983,39.058 30.832,37.554 33.092,35.35C34.513,33.964 35.667,32.328 36.494,30.523C36.353,30.672 36.208,30.819 36.064,30.963C33.673,33.311 30.661,34.926 27.382,35.618C27.234,35.691 27.083,35.758 26.931,35.825C24.613,36.83 22.055,37.15 19.562,36.745C17.067,36.341 14.742,35.229 12.861,33.542C12.646,33.35 12.436,33.15 12.233,32.942L12.142,32.846C10.291,30.924 9.07,28.484 8.641,25.85C8.602,25.614 8.57,25.377 8.543,25.138C8.491,24.664 8.465,24.187 8.464,23.71C8.454,21.113 9.213,18.572 10.645,16.405C11.005,15.858 11.406,15.339 11.845,14.852C12.03,14.647 12.224,14.442 12.426,14.246C14.849,11.865 18.1,10.515 21.496,10.479L21.811,10.479C24.697,10.502 27.496,11.475 29.775,13.248C29.696,12.956 29.606,12.667 29.507,12.38C29.426,12.154 29.341,11.934 29.247,11.715C28.724,10.463 27.989,9.311 27.073,8.309L27.02,8.269C26.252,8.002 25.465,7.795 24.665,7.649C22.594,7.268 20.47,7.288 18.407,7.706C17.44,7.901 16.494,8.185 15.579,8.553C15.139,8.73 14.711,8.924 14.306,9.13C13.414,9.583 12.565,10.117 11.771,10.725L11.7,10.779C11.197,11.172 10.717,11.592 10.262,12.038C9.245,13.032 8.362,14.156 7.638,15.38C7.224,16.081 6.864,16.812 6.562,17.568L6.553,17.746L6.485,17.748ZM16.337,5.358C15.354,5.357 14.372,5.447 13.405,5.625C13.278,5.645 13.156,5.669 13.033,5.697C12.581,5.79 12.126,5.905 11.675,6.04C11.412,6.117 11.151,6.202 10.891,6.292C10.632,6.383 10.393,6.475 10.147,6.575C6.826,7.913 4.046,10.32 2.247,13.416C2.018,13.805 1.799,14.215 1.601,14.634C1.442,14.967 1.292,15.306 1.158,15.645C-0.372,19.487 -0.386,23.767 1.119,27.619C2.625,31.472 5.537,34.609 9.267,36.395L9.493,36.503C9.343,36.36 9.193,36.213 9.048,36.065C6.699,33.67 5.083,30.654 4.391,27.371C4.33,27.263 4.251,27.09 4.176,26.916C4.056,26.641 3.949,26.362 3.847,26.075C3.269,24.439 3.019,22.704 3.113,20.97C3.206,19.237 3.641,17.539 4.393,15.974C4.649,15.441 4.938,14.924 5.26,14.428C5.623,13.874 6.028,13.347 6.47,12.854C6.692,12.605 6.921,12.366 7.162,12.137C7.611,11.704 8.091,11.305 8.599,10.943C9.375,10.387 10.209,9.918 11.086,9.543C13.143,7.976 15.527,6.894 18.061,6.378C19.001,6.183 19.955,6.065 20.914,6.025L20.699,5.963C19.28,5.562 17.812,5.358 16.337,5.358ZM19.109,33.985L19.325,34.045C21.698,34.699 24.189,34.813 26.613,34.376L26.679,34.364C26.787,34.344 26.895,34.324 27.002,34.301C27.448,34.211 27.888,34.1 28.355,33.961C28.822,33.822 29.287,33.664 29.754,33.476L29.913,33.692L29.817,33.451C31.79,32.655 33.587,31.478 35.104,29.987C36.122,28.99 37.006,27.865 37.733,26.639C38.153,25.927 38.518,25.183 38.823,24.415C40.004,21.475 40.304,18.256 39.686,15.149C39.069,12.042 37.561,9.181 35.346,6.916C33.965,5.5 32.335,4.35 30.539,3.523C32.551,5.445 34.08,7.815 35.001,10.441C35.258,11.172 35.468,11.918 35.63,12.675C35.688,12.783 35.765,12.951 35.837,13.118C36.255,14.096 36.553,15.122 36.725,16.172C36.842,16.887 36.901,17.611 36.901,18.336C36.906,20.926 36.148,23.459 34.722,25.62C34.362,26.167 33.961,26.686 33.521,27.172C33.336,27.379 33.142,27.583 32.94,27.78L32.846,27.868C31.703,28.971 30.37,29.856 28.91,30.481C27.479,31.557 25.889,32.405 24.199,32.995C23.464,33.254 22.714,33.465 21.952,33.627C21.015,33.823 20.065,33.943 19.109,33.987L19.109,33.985ZM12.958,31.725C13.729,31.997 14.521,32.208 15.325,32.357C17.407,32.751 19.545,32.731 21.619,32.298C22.341,32.147 23.052,31.949 23.748,31.705C23.993,31.619 24.235,31.526 24.472,31.43C24.889,31.263 25.294,31.078 25.681,30.882C28.481,29.477 30.813,27.29 32.394,24.586C32.621,24.203 32.839,23.793 33.04,23.365C33.193,23.043 33.331,22.726 33.463,22.403L33.481,22.353C34.621,19.517 34.932,16.416 34.38,13.41L34.38,13.403C34.361,13.286 34.338,13.17 34.312,13.054C34.222,12.606 34.106,12.146 33.968,11.682C33.889,11.418 33.806,11.157 33.714,10.895C33.629,10.656 33.54,10.421 33.445,10.188C32.117,6.87 29.724,4.086 26.643,2.276C26.227,2.029 25.801,1.803 25.377,1.601C25.064,1.451 24.749,1.31 24.428,1.183C20.581,-0.368 16.287,-0.395 12.42,1.107C8.553,2.609 5.404,5.527 3.612,9.268C3.578,9.338 3.545,9.408 3.513,9.483C5.436,7.467 7.809,5.935 10.438,5.012C11.164,4.757 11.904,4.548 12.655,4.385C12.775,4.32 12.954,4.238 13.137,4.161C13.397,4.054 13.663,3.946 13.933,3.852C14.67,3.594 15.428,3.399 16.198,3.271C19.479,2.74 22.84,3.461 25.615,5.291C26.159,5.646 26.674,6.042 27.157,6.475C27.398,6.69 27.632,6.914 27.857,7.146C28.958,8.291 29.842,9.626 30.467,11.087C30.584,11.362 30.693,11.64 30.789,11.925C31.048,12.656 31.242,13.408 31.368,14.172C31.41,14.41 31.442,14.652 31.468,14.893C31.74,17.339 31.315,19.811 30.244,22.026C29.701,23.159 29.002,24.21 28.167,25.148C26.943,26.508 25.452,27.6 23.786,28.357C22.12,29.113 20.316,29.517 18.486,29.543C17.833,29.552 17.181,29.511 16.534,29.421C15.173,29.233 13.849,28.833 12.611,28.237C11.769,27.834 10.972,27.344 10.232,26.776C10.724,28.623 11.659,30.322 12.955,31.726L12.958,31.725ZM9.867,24.622C10.831,25.605 11.96,26.41 13.203,27.003C13.48,27.136 13.761,27.257 14.045,27.368C12.052,25.247 10.819,22.526 10.538,19.63C9.961,21.228 9.732,22.932 9.867,24.626L9.867,24.622ZM25.955,12.634C27.937,14.754 29.172,17.465 29.469,20.352C30.046,18.769 30.278,17.081 30.147,15.401L30.147,15.396C28.963,14.187 27.533,13.245 25.955,12.634Z" style="fill:url(#_Radial1);fill-rule:nonzero;"/>
    </g>
    <defs>
        <radialGradient id="_Radial1" cx="0" cy="0" r="1" gradientUnits="userSpaceOnUse" gradientTransform="matrix(20.0015,0,0,20.0015,19.9971,20)"><stop offset="0" style="stop-color:rgb(253,195,0);stop-opacity:1"/><stop offset="0.11" style="stop-color:rgb(253,194,5);stop-opacity:1"/><stop offset="0.25" style="stop-color:rgb(253,191,19);stop-opacity:1"/><stop offset="0.39" style="stop-color:rgb(253,185,43);stop-opacity:1"/><stop offset="0.54" style="stop-color:rgb(254,178,76);stop-opacity:1"/><stop offset="0.7" style="stop-color:rgb(254,169,119);stop-opacity:1"/><stop offset="0.86" style="stop-color:rgb(255,157,170);stop-opacity:1"/><stop offset="1" style="stop-color:rgb(255,146,222);stop-opacity:1"/></radialGradient>
    </defs>
</svg>
